<svg id="Layer_1" data-name="Layer 1" xmlns="http://www.w3.org/2000/svg" viewBox="0 0 3774.73 1028.06"><defs><style>.cls-1{fill:#fff;}</style></defs><title>shape</title><path class="cls-1" d="M191.25,2659.25q-835.21,0-1670.43,0c-64.9,0-129.81-.45-194.7,0-15.81.11-22-4.81-22-21.56q1-275,.68-550c0-12.24,4.66-18.87,16.33-22.22,37-10.63,73.84-22,110.88-32.57,14.83-4.24,20.3.49,20.39,17.43.26,47.82.72,95.66-.17,143.46-.31,16.58,6,22.37,21.73,22.34,59.06-.08,48.22,7,49.38-46,.83-38.13.17-76.28.42-114.42.14-20.71,3-23.46,24-23.54,21.63-.09,43.33,1.18,64.88-.1,17.85-1.06,22.77,7,22.76,23,0,55.79.55,111.57.81,167.36.14,28.47.36,56.94,0,85.4-.15,11.78,3.73,18.33,16.45,18.31,11.37,0,22.79.34,34.1,1.42,15.49,1.47,19.51-6.17,19.49-20.23q-.39-212.61-.1-425.23c0-29,.82-58.06.95-87.09.06-12.82,6-18.69,18.77-18.65q55.51.18,111-.11c13.06-.08,18.79,6.87,19,18.93.86,47.77,1.92,95.55,2.06,143.33q.39,129-.39,257.9c-.09,14.79,5.31,20.93,20,20a284.37,284.37,0,0,1,30.73-.12c14.89.7,19.8-6.31,19.66-20.66-.46-46.68.07-93.36-.07-140,0-13.59,2.43-22.4,18.52-27.13,48.36-14.2,95.94-31.09,143.93-46.58,14.74-4.76,22.47.63,22.7,17.46.86,62.61,1.1,125.23,1.14,187.84,0,29.06-.43,29.06,29.08,29.49,39.87.57,40.09.58,40.58-38.4.37-29,.56-58.08-.12-87.1-.33-14.2,3.68-21,19.3-20.39,23.3.89,46.68.39,70-.38,15.82-.52,22.5,5.39,22.44,21.89-.33,80.26.12,160.53.31,240.8.06,25.38,2.77,28.43,28,29.1,18.21.48,36.43.19,54.65.28,21.13.1,23.66-2.22,23.67-23.27,0-125.82.21-251.65-.13-377.47-.13-47.46,2.44-36.26,37.49-51.19,41.69-17.76,85.05-31.55,127.53-47.47,18.45-6.92,20.16-6.78,20.3,14.09.52,81.4.3,162.81.49,244.21.06,25.62,1,51.24.57,76.85-.2,12.22,3.93,17.83,16.49,17.73,25-.19,50.08.15,75.13.42,12.82.14,16.21-6.9,16.18-18.54-.17-61.49.15-123,.21-184.46.13-119.56.49-239.12,0-358.68-.07-16.75,4.74-23.61,22-23.42,60.34.68,120.69.65,181,.31,13.87-.08,17.29,6.11,17.28,18.74q-.07,199.83.51,399.65.17,124.68.14,249.36c0,25.64,1.15,26.78,27,27.24,20.49.36,41-.24,61.47.68,15.16.68,20.1-6.25,20-20.36-.28-43.83,0-87.66,0-131.49.09-76.86.36-153.72.09-230.58-.05-14.69,3.49-22.83,19.38-28.66,47.36-17.36,93.64-37.65,140.35-56.78,16.91-6.92,25-2.21,25.12,16q.77,157.12.85,314.25c0,26.16,0,26.59,26.33,26.94q28.18.37,56.36.13c21.39-.16,22.81-1.62,23-23.77.23-33.59,1.16-67.21,0-100.76-.58-17.31,7.08-22,22.21-21.76,23.33.34,46.7.74,70-.12,16-.59,20.58,6.25,20.51,21.38-.35,82,.54,164-.26,245.94-.17,17.3,6.27,22.91,22.12,24.37,46.38,4.25,47.35,3.83,47.45-41.55q.68-292.89,1.3-585.79c.08-29.83.37-29.87,31-30q99.91-.28,199.83-.49c23.94-.06,26.4,1.77,26.5,26.16q.6,148.59.52,297.18c0,43-.07,43,42.62,43.62,14.8.2,29.6-.17,44.4-.26,21-.12,22.76,1.2,23,21.72.62,59.21,1.39,118.42.93,177.62-.11,13.82,4.12,17.42,17.26,17.72,53.4,1.22,53.06,1.6,53-52.26-.11-120.7.33-241.4,0-362.1,0-15.72,3.92-24.25,20.45-29.62,35.57-11.57,70.1-26.31,105.15-39.51,18.92-7.12,22.94-4.87,23.44,16.07.83,34.7.35,69.44.37,104.16,0,64.9-.09,129.8.12,194.71.07,21.6,2,23.55,23.26,24,21.62.46,43.31,1,64.88-.05,16.08-.81,20.94,5.84,20.86,20.93-.33,57.5.06,115,.2,172.51.05,21.59,2.92,25.09,24.13,25.44,53.27.88,45.73,3.33,45.88-43.37q.66-203.22.85-406.45c.06-23.78.9-24.46,25.49-24.49q82-.1,164,0c33.41,0,33.61,0,33.66,34.2q.21,134.07.1,268.13c0,25.25.44,25.95,25.42,26.32,19.92.3,39.87.69,59.77,0,13.62-.44,22.35,4,23.26,18.38,1,15.33,9.3,20.16,23.75,19.69,19.32-.63,38.69.26,58,.14,24.8-.15,25.07-.3,25.18-25.91.25-62.06.21-124.11.32-186.17.15-82,.5-164,.33-245.95,0-12.43,3.41-19.34,16.31-23.55,48.45-15.79,96.3-33.44,144.73-49.3,22-7.21,23.68-5.26,23.75,19.06q.44,150.28.51,300.57c0,26.58-.18,26.63,26.09,26.9,21.63.23,43.26.59,64.89.42,13.28-.11,19.92,4.92,19.7,19.13-.36,23.33.78,46.68.49,70-.16,12.56,4.36,19.44,17.43,19.77,12.5.32,25,1.16,37.5,1.33,12,.16,17.57,5.74,17.51,17.87-.17,30.73,0,61.47.08,92.2q.63,170.79,1.34,341.58c.1,24.51-1.44,26.11-25.9,26.12q-684.06.17-1368.11.37-246.8.06-493.6,0Zm1211.4-477.18c0,19.32.15,38.64-.06,58-.12,11.21,5.81,14.81,16.09,14.64,9.94-.16,19-1.52,19-14,0-38.06-.15-76.13-.79-114.19-.22-12.85-10.47-12.84-19.83-13.07-9.66-.24-14.74,3.69-14.53,14.11C1402.91,2145.7,1402.65,2163.89,1402.65,2182.07Zm-412.72-3.61h.42q0,28.94,0,57.88c0,12.06,7.76,15.29,17.84,15.86,11.29.64,13.15-7.3,13.17-15.7.09-38-.16-76-.32-114,0-10.84-4.32-16.54-16.4-16.37-11.76.16-14.61,6.61-14.67,16.2C989.84,2141,989.93,2159.74,989.93,2178.47ZM622.28,1966h-.38c0-18.18,0-36.36,0-54.54,0-9.55-2.57-16.72-14.3-16.73-11.44,0-16.59,5.23-16.58,16.55q0,56.25-.28,112.5c-.06,11.38,5,16.19,16.59,16.18s14.91-6.16,14.95-16C622.34,2004.68,622.28,1985.36,622.28,1966ZM710,1833.21l.67,0c-.72-14.74-.9-29.54-2.3-44.22-1.33-13.9-12.49-11.94-22.11-12.41-10.67-.52-11.64,5.75-11.62,14.19.05,25.58-.11,51.17-.79,76.74-.34,12.7,4.06,18.76,17.61,18.65,13.37-.1,18.48-6.55,18.53-18.82C710,1855.95,710,1844.58,710,1833.21Zm1062.68,56.32h.53c0,13.64-.51,27.31.15,40.92.62,12.86,10.13,14.72,20.65,15s14.1-5.41,14.15-14.83c.13-25,.07-50,.54-75,.23-12.47-3.84-18.81-17.66-18.48-14.15.33-19.17,6.63-18.47,20C1773.08,1867.9,1772.63,1878.73,1772.63,1889.53ZM-155,1832.82h-.46c0,14.22-1,28.55.6,42.58.49,4.29,8.29,11,12.53,10.86,7.19-.26,20.19-4.76,20.38-8.07,1.67-28.9,1.75-58,.71-86.9-.41-11.32-10.53-13.1-20.47-13.17-11-.08-13.34,6.41-13.3,15.45C-155,1806.66-155,1819.74-155,1832.82Zm1995,223.11.7,0c-.61-13-1.51-26.09-1.72-39.15-.15-9.51-3.27-14.89-13.84-14.82-10.21.07-18.82,2-19.18,14.06-.75,25.53-1.52,51.11-.78,76.62.39,13.47,12.28,12.46,22,13,9.86.51,12.91-5.15,12.87-13.85C1839.91,2079.8,1840,2067.87,1840,2055.93Zm-3491.68,109h-.82c0,13-1.07,26.18.58,39,.57,4.47,8,11.55,12,11.33,7.08-.39,19.74-5.12,19.92-8.58a708.48,708.48,0,0,0-.33-84.59c-.3-4.51-11.87-10.43-18.85-11.43-3.45-.5-11.24,8.34-11.93,13.63C-1652.89,2137.64-1651.73,2151.37-1651.73,2165Zm1752.58-75.62c0,13.08.43,26.18-.12,39.24-.54,12.78,6.74,15.24,17.22,15.1,10.05-.14,18.25-1.73,18.09-14.62-.24-19.33.08-38.67-.12-58a156,156,0,0,0-1.58-23.77c-2.15-13-12.2-12.65-22.35-12.51-11.16.15-10.92,7.88-11,15.33C100.74,2063.16,100.89,2076.25,100.85,2089.33Zm-1283.55-36.62h-.68c0-13.08.91-26.26-.51-39.18-.48-4.33-7.17-11.53-10.53-11.27-7.41.58-20.56,4.7-20.77,8.06a673.13,673.13,0,0,0-.35,84.76c.25,4,13.78,8.78,21.62,9.83,3.1.42,10.11-8,10.7-13C-1181.68,2079-1182.7,2065.8-1182.7,2052.71Zm183.14,147.8h-1c0-13-.07-26.09,0-39.14.06-8.23-1.44-14.7-11.92-14.39-9.17.27-20-1.09-20.49,11.87-1.05,27.74-1.73,55.57-.34,83.25.23,4.5,11.35,10.25,18.33,12.16,9,2.46,15.27-2.73,15.35-12.91C-999.48,2227.73-999.56,2214.12-999.56,2200.51ZM-518.49,2059h-.08c0-12.47.2-24.94-.06-37.4-.22-10.34-4.15-17.31-16.13-17.37-11.77-.05-18.45,5-18.55,17-.21,25.5-.13,51-.14,76.51,0,12.05,8.47,13,17.5,13.4,9.39.39,17.37-1.06,17.45-13C-518.43,2085.12-518.49,2072.08-518.49,2059Zm31.6,170.16h-.73c0-13.64-.17-27.28.05-40.91.2-12.19-7.68-13.68-17-13.45s-17.6,2.07-17.65,13.69c-.11,25.58-.58,51.2.56,76.74.63,14.15,13.32,11.14,22.42,11.85,9.72.76,12.78-4.78,12.46-13.82C-487.2,2252-486.9,2240.57-486.9,2229.2ZM-1220.09,1883h-1c0-13.61.16-27.21,0-40.81-.19-12.7-8.72-13.6-18.79-13.66-10.85-.07-13.49,5.42-13.38,14.88q.43,38.29.15,76.58c-.09,11.26,4.49,16.47,16.11,16.79,11.93.33,16.61-5.7,16.89-16.34C-1219.84,1908-1220.09,1895.49-1220.09,1883Zm1064.75,316h-.6c0,12.45.2,24.9-.06,37.34-.23,11.13,2.57,18.27,15.94,18.42,13,.15,19.34-5.46,19.18-17.89-.33-26-1.15-52-1.9-78-.35-12.18-9.11-12.16-18-12.47-9.74-.33-14.88,3.1-14.6,13.58C-155.07,2173-155.34,2186-155.34,2199.05Zm1534.47-181c0-13.06.31-26.13-.11-39.17-.25-7.87-.08-16.44-12.29-16-10.56.34-20.5,2-20.75,14.7-.52,26.65-.4,53.34.67,80,.49,12.29,11,12.25,20.46,12.59,10.72.39,11.84-6.73,12-14.56C1379.24,2043,1379.11,2030.51,1379.13,2018Zm-1574.59-.27.84,0c-.6-13.63-.85-27.3-1.93-40.89-.72-9.13-5.52-14-15.71-13.93s-14.62,4.74-14.8,14.31c-.47,25.59-.81,51.18-1.28,76.77-.21,11.24,4.7,16.3,16.4,16.46,12.31.17,16.16-6.43,16.41-16.85C-195.24,2041.66-195.47,2029.7-195.47,2017.75Zm-53.76-253.68h-.32c0,12.49.37,25-.1,37.47-.49,12.74,7,14.87,17.38,15.16,10.75.3,15.92-4.25,15.79-15-.27-23.83-.29-47.67-.8-71.5-.2-9.38-.91-17.82-14.89-17.32-13.67.49-18,6.08-17.19,18.83C-248.69,1742.47-249.23,1753.29-249.23,1764.08Zm1250.68,178.07h-.55c0,14.21,0,28.43,0,42.64,0,10.17,5.27,13.6,15,13.85,10.53.26,16.61-3.45,16.58-14.28-.07-27.3-.44-54.59-.74-81.88-.1-9.61-5.63-12.49-14.5-12.25s-16,1.41-15.85,12.68C1001.59,1916,1001.45,1929.07,1001.45,1942.15ZM755.73,2238.79H755q0-19.56,0-39.12c0-10.66-5.21-15.21-15.93-14.91-9.8.27-14.69,4.35-14.7,14.33,0,25,0,49.91-.35,74.86-.15,11.7,6.79,14,16.51,14.19s15.23-3.35,15.2-13.62C755.7,2262.61,755.73,2250.7,755.73,2238.79Zm993.58-1.79h-.12c0,13-1.27,26.28.68,39,.7,4.6,9.08,11,14.06,11.14,5.3.1,15.2-6.1,15.39-9.93,1.32-26.57.8-53.25.5-79.89-.12-10.64-7.92-14.27-16.29-11.86-5.48,1.58-12.84,7.59-13.57,12.49C1748,2210.72,1749.31,2224,1749.31,2237ZM-445.4,1981.25h-.12c0-5.1.12-10.21,0-15.31-.26-9,1.36-19.15-12.41-19.75-12.84-.56-20.76,4.34-21.25,18.2-.42,11.89-1.84,23.8-1.37,35.64.51,12.83,9.38,16.71,21.11,16.76,11.89.05,13.92-7.47,14-16.83C-445.33,1993.73-445.4,1987.49-445.4,1981.25ZM-743,2147.39h-.7c0-5.12-.3-10.26.06-15.36.87-12.53-3.4-19.27-17.33-18.63-12.85.59-18.58,5.71-17.63,19,.81,11.33,0,22.76.18,34.14.24,12.28,7.43,16.71,19,16.64s16.45-6,16.44-17Q-743,2156.78-743,2147.39Zm2693.22,81.06h-.38c0-7.33,2.34-15.85-.61-21.69-3.41-6.75-10.79-14.3-17.7-15.82-9.88-2.18-16.61,4.65-16.29,16.23.37,13.53.17,27.08.26,40.62.07,11.09,7.61,16.17,16.55,14.17,6.71-1.5,14.11-7.49,17.57-13.55C1952.56,2243.31,1950.25,2235.22,1950.25,2228.45ZM-926.92,2071.88h.06c0-6.24.17-12.49,0-18.72-.34-9.94-.35-19.34-15.15-18.92-13.79.39-20,6.95-20.16,19.65-.11,11.31,1.78,22.64,1.73,34-.07,15.69,10.73,16.72,21.91,17.27,13.75.68,11.1-9.86,11.59-17.93C-926.66,2082.11-926.92,2077-926.92,2071.88ZM357,2219.15h-.32c0,6.24.12,12.48,0,18.72-.25,10.69,3.21,16.91,15.53,17,12.75.12,19.47-4.82,19.66-17.58.18-11.91-.4-23.83-.11-35.73.34-14.31-8.5-16.45-20-16.78-12.74-.37-15.28,6.83-14.77,17.35C357.27,2207.8,357,2213.48,357,2219.15ZM540.55,2145h-.34c0,6.25.09,12.5,0,18.74-.21,11.51,6.16,16.18,16.86,16.9,11.21.75,15.63-5.8,15.89-15.48.38-13.61.05-27.25-.52-40.86-.44-10.51-6.67-14.91-17-14.42-9.51.46-14.87,4.76-14.87,14.67Q540.54,2134.78,540.55,2145Zm768.52,36.06h-.26c0,6.23.51,12.5-.1,18.67-1.31,13.14,5.59,16.48,17.2,16.79,12,.31,16.49-5,16-16.29-.57-13-1-26-1.37-39-.34-11.55-6.38-15.25-17.56-15.13-11.94.13-14.23,6.53-13.94,16.27C1309.22,2168.6,1309.07,2174.83,1309.07,2181.05Zm-186,75.09h-.36c0-6.23.5-12.5-.12-18.67-.81-8.06.58-17.63-12.56-18-12.73-.33-19.33,5.32-20.05,17.57-.67,11.29,0,22.66-.81,33.94-1,14.45,7.57,16.54,19.1,17.31,13.16.87,15.21-6.53,14.85-16.88C1122.89,2266.34,1123,2261.24,1123,2256.14Zm-2376.16-37.46h.16c0,6.8,0,13.6,0,20.4,0,9.39,3.94,14.57,14.14,15.07s17.09-2.53,17.46-13.38c.48-14.13.35-28.31-.19-42.44-.42-11.13-8-13.46-17.73-13.27-10.27.2-14.15,5.3-13.88,14.92C-1253,2206.21-1253.12,2212.45-1253.12,2218.68Zm-146.53-98.89c3-13.52-6.92-14.47-18.31-14.66-11-.18-16.95,3.48-16.62,15.57.37,13.8,7.91,19.26,20.47,19.09C-1402.58,2139.63-1398.35,2132.68-1399.66,2119.79Zm1570-154.13c.85-10.61-2.08-17.25-14.73-16.85-11.16.35-16.29,4.49-16.51,16.06-.23,12,5.59,15.73,16.48,15.83C166.17,1980.81,171.59,1976.73,170.33,1965.66Z" transform="translate(1695.87 -1631.26)"/></svg>